<svg xmlns="http://www.w3.org/2000/svg" viewBox="3641.755 629 21.097 23.555">
  <defs>
    <style>
      .cls-1 {
        fill: #a60d17;
      }
    </style>
  </defs>
  <path id="Path_2" data-name="Path 2" class="cls-1" d="M3.524,0a.771.771,0,0,0-.785.785V2.617H.829a.787.787,0,1,0,.1,1.57H2.765V6.8H.855a.787.787,0,1,0,.1,1.57H2.791v2.617H.881a.787.787,0,0,0,.1,1.57H2.818V15.18H.907a.787.787,0,0,0,.1,1.57H2.844v2.617H.933a.787.787,0,0,0,.1,1.57H2.87V22.77a.771.771,0,0,0,.785.785h16.75a.771.771,0,0,0,.785-.785V.785A.771.771,0,0,0,20.406,0Zm.785,1.57H19.49V21.985H4.309V1.57Zm3.35,9.4,2.853,5.418a3.818,3.818,0,0,0,5.182,1.6c.079-.052-1.884-3.481-1.884-3.481-.916.471-2.277-.288-3.036-1.727s-.628-2.984.288-3.481L9.256,5.784A3.818,3.818,0,0,0,7.66,10.966ZM10.539,5.13l1.832,3.4-.942.523L9.6,5.653Zm4.711,8.689,1.832,3.4-.942.523-1.832-3.4Z" transform="translate(3641.66 629)"/>
</svg>
